<?xml version="1.0" encoding="utf-8"?>
<!-- Generator: Adobe Illustrator 26.0.3, SVG Export Plug-In . SVG Version: 6.00 Build 0)  -->
<svg version="1.1" id="Capa_1" xmlns="http://www.w3.org/2000/svg" xmlns:xlink="http://www.w3.org/1999/xlink" x="0px" y="0px"
	 viewBox="0 0 469.3 469.3" style="enable-background:new 0 0 469.3 469.3;" xml:space="preserve">
<style type="text/css">
	.st0{fill:#FFFFFF;}
</style>
<g>
	<g>
		<g>
			<path class="st0" d="M447.9,362.6v-32c0-5.9-4.8-10.7-10.7-10.7c-5.9,0-10.7,4.8-10.7,10.7v0.3c-19.2-29.8-40.1-56.5-51.6-70.5
				c-3.7-4.6-10.4-5.3-15-1.5c-4.6,3.7-5.2,10.4-1.5,15c20.8,25.5,37.3,48.1,50.1,67.9c-5.6-1.8-11.6,1.2-13.4,6.7
				c-1.9,5.6,1.2,11.6,6.7,13.5l23.6,7.9c23.5,42.7,26.1,67.4,19,74.5c-7.6,7.6-35.3,4.9-88.6-27.2c-32.3-19.5-68.3-46.4-105.1-78.3
				c15.1-13.7,30.2-28,45.2-43c53.5-53.5,99.2-108.7,130.6-157.5v0.1c0,5.9,4.8,10.7,10.7,10.7c5.9,0,10.7-4.8,10.7-10.7v-32
				c0-1-0.4-1.9-0.7-2.8c24.5-46.1,28.6-77.7,12.3-94.1C427.8-22,343.9,31.4,296.8,66c-4.7,3.5-5.8,10.2-2.3,14.9
				c3.5,4.7,10.1,5.8,14.9,2.3C386,26.9,433.2,13.5,444.5,24.8c6.9,6.9,5.1,30.5-19.2,74.6l-23.3,7.8c-5.6,1.9-8.6,7.9-6.7,13.5
				c1.8,5.5,7.6,8.5,13.2,6.8c-30.6,47.3-75.2,101.2-127.5,153.4c-15.3,15.3-30.8,30-46.2,43.9c-15.4-13.9-30.9-28.5-46.2-43.9
				C136.2,228.6,91.5,174.8,61,127.4c5.6,1.7,11.4-1.3,13.2-6.8c1.9-5.6-1.2-11.6-6.7-13.5l-23.3-7.8C19.8,55.3,18,31.6,24.9,24.8
				c11.3-11.3,58.5,2.2,135.2,58.5c4.7,3.5,11.4,2.5,14.9-2.3c3.5-4.7,2.5-11.4-2.3-14.9C125.5,31.4,41.5-22.1,9.8,9.7
				c-16.4,16.4-12.2,48,12.3,94.1c-0.3,0.9-0.7,1.8-0.7,2.8v32c0,5.9,4.8,10.7,10.7,10.7c5.9,0,10.7-4.8,10.7-10.7v-0.1
				c31.4,48.7,77.2,104,130.6,157.5c15,15,30.1,29.4,45.2,43c-36.8,31.9-72.7,58.8-105.1,78.3c-53.4,32.2-81.1,34.7-88.6,27.2
				c-7.1-7.1-4.5-31.8,19-74.5l23.6-7.9c5.6-1.9,8.6-7.9,6.7-13.5c-1.8-5.6-7.8-8.5-13.4-6.7c12.8-19.7,29.1-42.2,49.8-67.6
				c3.7-4.6,3-11.3-1.5-15c-4.6-3.7-11.3-3-15,1.5c-11.4,14-32.2,40.5-51.3,70.2v-0.3c0-5.9-4.8-10.7-10.7-10.7
				c-5.9,0-10.7,4.8-10.7,10.7v32c0,1.1,0.4,2.2,0.8,3.2c-20,37.8-31.1,74.9-12.4,93.7c6.5,6.5,15.5,9.8,26.9,9.8
				c21.1,0,50.5-11.3,87.9-33.8c33.9-20.5,71.7-48.8,110.1-82.3c38.5,33.5,76.2,61.8,110.1,82.3c37.4,22.5,66.7,33.8,87.9,33.8
				c11.4,0,20.3-3.3,26.9-9.8c18.7-18.7,7.6-55.8-12.4-93.7C447.5,364.8,447.9,363.8,447.9,362.6z"/>
			<path class="st0" d="M128,138.7c0,5.9,4.8,10.7,10.7,10.7s10.7-4.8,10.7-10.7c0-5.9,4.8-10.7,10.7-10.7c5.9,0,10.7,4.8,10.7,10.7
				s-4.8,10.7-10.7,10.7c-5.9,0-10.7,4.8-10.7,10.7s4.8,10.7,10.7,10.7c5.9,0,10.7,4.8,10.7,10.7c0,5.9-4.8,10.7-10.7,10.7
				c-5.9,0-10.7-4.8-10.7-10.7c0-5.9-4.8-10.7-10.7-10.7s-10.7,4.8-10.7,10.7c0,17.6,14.4,32,32,32s32-14.4,32-32
				c0-8.2-3.1-15.7-8.2-21.3c5.1-5.7,8.2-13.1,8.2-21.3c0-17.6-14.4-32-32-32C142.4,106.7,128,121,128,138.7z"/>
			<path class="st0" d="M309.3,213.3c17.6,0,32-14.4,32-32v-42.7c0-17.6-14.4-32-32-32s-32,14.4-32,32v42.7
				C277.3,199,291.7,213.3,309.3,213.3z M298.7,138.7c0-5.9,4.8-10.7,10.7-10.7c5.9,0,10.7,4.8,10.7,10.7v42.7
				c0,5.9-4.8,10.7-10.7,10.7c-5.9,0-10.7-4.8-10.7-10.7V138.7z"/>
			<path class="st0" d="M234.7,213.3c17.6,0,32-14.4,32-32s-14.4-32-32-32c-3.3,0-6.4,0.6-9.4,1.6c2.4-9.7,9.5-22.9,30.7-22.9
				c5.9,0,10.7-4.8,10.7-10.7s-4.8-10.7-10.7-10.7c-42.2,0-53.3,34.9-53.3,53.3v21.3C202.7,199,217,213.3,234.7,213.3z M234.7,170.7
				c5.9,0,10.7,4.8,10.7,10.7c0,5.9-4.8,10.7-10.7,10.7s-10.7-4.8-10.7-10.7C224,175.4,228.8,170.7,234.7,170.7z"/>
			<path class="st0" d="M384,106.7c0-11.8-9.6-21.3-21.3-21.3s-21.3,9.6-21.3,21.3s9.6,21.3,21.3,21.3
				C374.4,128,384,118.4,384,106.7z"/>
		</g>
	</g>
</g>
</svg>
